<?xml version="1.0" standalone="no"?>
<!DOCTYPE svg PUBLIC "-//W3C//DTD SVG 20010904//EN"
 "http://www.w3.org/TR/2001/REC-SVG-20010904/DTD/svg10.dtd">
<svg version="1.0" xmlns="http://www.w3.org/2000/svg"
 width="260.000000pt" height="260.000000pt" viewBox="0 0 260.000000 260.000000"
 preserveAspectRatio="xMidYMid meet">
<metadata>
Created by potrace 1.14, written by Peter Selinger 2001-2017
</metadata>
<g transform="translate(0.000000,260.000000) scale(0.100000,-0.100000)"
fill="#000000" stroke="none">
<path d="M546 2033 c-137 -31 -221 -119 -257 -268 -14 -59 -19 -641 -6 -725
12 -80 12 -82 25 -115 41 -102 117 -176 217 -210 64 -22 185 -26 253 -9 58 15
142 65 184 110 34 36 76 128 85 185 9 55 10 678 1 739 -28 193 -157 301 -364
305 -44 1 -106 -5 -138 -12z m148 -255 c14 -6 29 -20 33 -32 10 -31 11 -677 1
-705 -19 -53 -71 -66 -107 -27 l-23 24 0 339 c1 211 5 349 11 366 9 22 27 37
58 46 1 1 13 -4 27 -11z"/>
<path d="M1854 2041 c-2 -3 -14 -6 -26 -8 -77 -12 -181 -90 -217 -162 -43 -86
-46 -120 -46 -501 0 -364 0 -365 25 -435 56 -157 211 -253 388 -241 201 15
333 138 358 331 8 61 7 655 -1 710 -22 156 -121 270 -261 300 -36 8 -213 13
-220 6z m137 -270 l24 -19 2 -355 c3 -345 2 -355 -18 -381 -28 -36 -72 -35
-96 1 -16 24 -18 59 -18 368 0 365 3 389 49 398 12 2 24 5 27 6 4 0 17 -8 30
-18z"/>
<path d="M1159 918 c-1 -124 0 -200 4 -204 9 -10 290 -6 296 4 5 8 6 120 2
220 -1 22 -2 22 -151 22 l-150 0 -1 -42z"/>
</g>
</svg>
